<?xml version="1.0" encoding="UTF-8" standalone="no"?>
<svg
   xmlns:dc="http://purl.org/dc/elements/1.1/"
   xmlns:cc="http://creativecommons.org/ns#"
   xmlns:rdf="http://www.w3.org/1999/02/22-rdf-syntax-ns#"
   xmlns:svg="http://www.w3.org/2000/svg"
   xmlns="http://www.w3.org/2000/svg"
   xmlns:sodipodi="http://sodipodi.sourceforge.net/DTD/sodipodi-0.dtd"
   xmlns:inkscape="http://www.inkscape.org/namespaces/inkscape"
   width="1.5in"
   height="0.329in"
   viewBox="0 0 144 31.583998"
   fill="none"
   version="1.1"
   id="svg909"
   sodipodi:docname="bmc_logo_wordmark.svg"
   inkscape:version="1.0.2 (e86c870879, 2021-01-15)">
  <metadata
     id="metadata915">
    <rdf:RDF>
      <cc:Work
         rdf:about="">
        <dc:format>image/svg+xml</dc:format>
        <dc:type
           rdf:resource="http://purl.org/dc/dcmitype/StillImage" />
        <dc:title></dc:title>
      </cc:Work>
    </rdf:RDF>
  </metadata>
  <defs
     id="defs913" />
  <sodipodi:namedview
     pagecolor="#ffffff"
     bordercolor="#666666"
     borderopacity="1"
     objecttolerance="10"
     gridtolerance="10"
     guidetolerance="10"
     inkscape:pageopacity="0"
     inkscape:pageshadow="2"
     inkscape:window-width="1920"
     inkscape:window-height="1019"
     id="namedview911"
     showgrid="false"
     inkscape:document-units="in"
     units="in"
     lock-margins="false"
     inkscape:zoom="8.5499839"
     inkscape:cx="72.105399"
     inkscape:cy="15.792002"
     inkscape:window-x="0"
     inkscape:window-y="32"
     inkscape:window-maximized="1"
     inkscape:current-layer="svg909" />
  <g
     id="g936"
     transform="matrix(0.03459364,0,0,0.03459364,-1.2530586e-7,1.0101005e-6)">
    <path
       d="m 564.724,212.38 -0.626,-0.368 -1.45,-0.443 c 0.584,0.493 1.314,0.778 2.076,0.811 z"
       fill="#0d0c22"
       id="path871" />
    <path
       d="m 573.852,277.606 -0.7,0.196 z"
       fill="#0d0c22"
       id="path873" />
    <path
       d="m 564.992,212.279 c -0.089,-0.011 -0.177,-0.032 -0.261,-0.062 -0.005,0.058 -0.005,0.116 0,0.174 0.096,-0.012 0.186,-0.051 0.261,-0.112 z"
       fill="#0d0c22"
       id="path875" />
    <path
       d="m 564.727,212.388 h 0.094 v -0.058 z"
       fill="#0d0c22"
       id="path877" />
    <path
       d="m 573.292,277.488 1.056,-0.602 0.393,-0.221 0.357,-0.381 c -0.67,0.289 -1.282,0.697 -1.806,1.204 z"
       fill="#0d0c22"
       id="path879" />
    <path
       d="m 566.552,213.805 -1.032,-0.982 -0.7,-0.381 c 0.376,0.664 0.998,1.153 1.732,1.363 z"
       fill="#0d0c22"
       id="path881" />
    <path
       d="m 306.964,846.743 c -0.824,0.356 -1.546,0.914 -2.1,1.621 l 0.651,-0.418 c 0.442,-0.405 1.068,-0.884 1.449,-1.203 z"
       fill="#0d0c22"
       id="path883" />
    <path
       d="m 457.704,817.085 c 0,-0.934 -0.454,-0.762 -0.343,2.555 0,-0.271 0.11,-0.541 0.159,-0.799 0.062,-0.589 0.111,-1.167 0.184,-1.756 z"
       fill="#0d0c22"
       id="path885" />
    <path
       d="m 442.069,846.743 c -0.824,0.356 -1.546,0.914 -2.1,1.621 l 0.651,-0.418 c 0.442,-0.405 1.068,-0.884 1.449,-1.203 z"
       fill="#0d0c22"
       id="path887" />
    <path
       d="m 200.806,853.794 c -0.626,-0.544 -1.392,-0.902 -2.211,-1.032 0.663,0.32 1.326,0.639 1.768,0.885 z"
       fill="#0d0c22"
       id="path889" />
    <path
       d="m 176.918,830.918 c -0.097,-0.968 -0.394,-1.904 -0.872,-2.751 0.339,0.882 0.622,1.784 0.848,2.702 z"
       fill="#0d0c22"
       id="path891" />
    <path
       d="m 337.376,421.762 c -32.794,14.039 -70.011,29.957 -118.244,29.957 -20.178,-0.04 -40.258,-2.809 -59.694,-8.229 l 33.36,342.501 c 1.18,14.315 7.702,27.663 18.269,37.393 10.567,9.73 24.407,15.129 38.771,15.127 0,0 47.301,2.457 63.084,2.457 16.987,0 67.923,-2.457 67.923,-2.457 14.362,-10e-4 28.199,-5.402 38.763,-15.131 10.565,-9.73 17.084,-23.076 18.265,-37.389 l 35.73,-378.477 c -15.967,-5.454 -32.082,-9.077 -50.248,-9.077 -31.419,-0.013 -56.734,10.809 -85.979,23.325 z"
       fill="#ffdd00"
       id="path893" />
    <path
       d="m 56.1709,275.636 0.565,0.529 0.3685,0.221 c -0.2838,-0.282 -0.5967,-0.534 -0.9335,-0.75 z"
       fill="#0d0c22"
       id="path895" />
    <path
       d="m 627.869,244.025 -5.023,-25.339 c -4.508,-22.735 -14.739,-44.217 -38.076,-52.435 -7.481,-2.628 -15.968,-3.758 -21.704,-9.199 -5.736,-5.441 -7.431,-13.892 -8.757,-21.728 -2.457,-14.383 -4.766,-28.778 -7.284,-43.1368 C 544.851,79.8431 543.131,65.9761 537.469,54.6515 530.1,39.4456 514.808,30.553 499.602,24.6696 491.81,21.7609 483.858,19.3004 475.786,17.3 437.796,7.27737 397.852,3.59259 358.769,1.49226 311.858,-1.09629 264.822,-0.316398 218.022,3.82595 183.189,6.99487 146.501,10.8271 113.399,22.8763 101.301,27.2858 88.8338,32.5796 79.6341,41.9267 68.3464,53.4109 64.6616,71.1716 72.9033,85.4931 c 5.8588,10.1701 15.7831,17.3549 26.3093,22.1089 13.7104,6.125 28.0294,10.785 42.7194,13.904 40.901,9.04 83.264,12.59 125.049,14.1 46.313,1.869 92.701,0.355 138.794,-4.532 11.398,-1.253 22.776,-2.755 34.133,-4.508 13.376,-2.051 21.962,-19.541 18.019,-31.7258 C 453.21,80.273 440.535,74.623 426.201,76.8216 c -2.113,0.3316 -4.213,0.6387 -6.326,0.9458 l -1.523,0.2211 c -4.856,0.6141 -9.711,1.1873 -14.567,1.7195 -10.031,1.0809 -20.086,1.9653 -30.166,2.6531 -22.576,1.5722 -45.213,2.2968 -67.837,2.3337 -22.232,0 -44.475,-0.6265 -66.658,-2.0881 -10.121,-0.6632 -20.217,-1.5067 -30.289,-2.5302 -4.581,-0.479 -9.15,-0.9826 -13.72,-1.5476 l -4.348,-0.5527 -0.945,-0.1351 -4.508,-0.651 c -9.212,-1.3879 -18.424,-2.9847 -27.538,-4.913 -0.919,-0.2041 -1.742,-0.7158 -2.332,-1.4505 -0.589,-0.7347 -0.911,-1.6485 -0.911,-2.5905 0,-0.9421 0.322,-1.8559 0.911,-2.5906 0.59,-0.7348 1.413,-1.2464 2.332,-1.4504 h 0.172 c 7.898,-1.6828 15.857,-3.1198 23.841,-4.3726 2.661,-0.4177 5.33,-0.8271 8.008,-1.2283 h 0.074 c 4.999,-0.3316 10.022,-1.2283 14.997,-1.8179 43.28,-4.5018 86.817,-6.0366 130.306,-4.5936 21.114,0.6141 42.216,1.8546 63.231,3.9918 4.52,0.4668 9.016,0.9581 13.511,1.5108 1.72,0.2088 3.451,0.4544 5.183,0.6632 l 3.489,0.5036 c 10.17,1.5149 20.286,3.3532 30.35,5.5149 14.911,3.2427 34.06,4.2989 40.692,20.6348 2.113,5.1833 3.071,10.9439 4.238,16.3852 l 1.486,6.94 c 0.039,0.124 0.068,0.251 0.086,0.38 3.513,16.377 7.03,32.754 10.551,49.131 0.258,1.21 0.264,2.46 0.018,3.672 -0.247,1.212 -0.74,2.361 -1.45,3.374 -0.71,1.013 -1.621,1.869 -2.677,2.514 -1.055,0.645 -2.232,1.066 -3.457,1.236 h -0.099 l -2.149,0.295 -2.125,0.283 c -6.731,0.876 -13.47,1.695 -20.217,2.456 -13.29,1.515 -26.6,2.825 -39.931,3.931 -26.489,2.202 -53.032,3.647 -79.628,4.335 -13.552,0.361 -27.1,0.528 -40.643,0.504 -53.909,-0.043 -107.771,-3.176 -161.321,-9.384 -5.797,-0.688 -11.594,-1.425 -17.392,-2.174 4.496,0.577 -3.267,-0.442 -4.839,-0.663 -3.685,-0.516 -7.37,-1.053 -11.054,-1.609 -12.369,-1.855 -24.6639,-4.14 -37.008,-6.142 -14.9234,-2.456 -29.1958,-1.228 -42.6944,6.142 -11.0803,6.063 -20.0483,15.361 -25.7075,26.653 -5.822,12.037 -7.55384,25.142 -10.15776,38.076 -2.60392,12.934 -6.6572,26.85 -5.121872,40.127 3.304032,28.656 23.337032,51.944 52.152032,57.152 27.1078,4.913 54.3625,8.892 81.6915,12.282 107.354,13.148 215.81,14.721 323.5,4.692 8.77,-0.819 17.527,-1.711 26.273,-2.677 2.731,-0.301 5.495,0.014 8.089,0.921 2.594,0.906 4.953,2.381 6.903,4.317 1.95,1.936 3.443,4.284 4.368,6.871 0.925,2.588 1.26,5.35 0.98,8.083 l -2.727,26.506 c -5.494,53.561 -10.989,107.117 -16.483,160.669 -5.732,56.238 -11.501,112.472 -17.307,168.702 -1.637,15.836 -3.275,31.669 -4.913,47.497 -1.572,15.587 -1.793,31.665 -4.753,47.067 -4.667,24.221 -21.065,39.096 -44.991,44.537 -21.92,4.988 -44.313,7.607 -66.793,7.812 -24.922,0.135 -49.831,-0.971 -74.752,-0.836 -26.604,0.148 -59.19,-2.309 -79.727,-22.108 -18.043,-17.393 -20.536,-44.623 -22.993,-68.169 -3.275,-31.173 -6.522,-62.343 -9.74,-93.508 L 141.06,507.979 129.379,395.851 c -0.197,-1.855 -0.393,-3.685 -0.577,-5.552 -1.401,-13.376 -10.871,-26.469 -25.794,-25.794 -12.7739,0.565 -27.292,11.423 -25.7935,25.794 l 8.6592,83.129 17.9083,171.957 c 5.101,48.843 10.19,97.696 15.267,146.556 0.983,9.359 1.904,18.743 2.936,28.102 5.613,51.145 44.672,78.708 93.041,86.47 28.25,4.545 57.187,5.478 85.855,5.945 36.75,0.59 73.868,2.002 110.016,-4.655 53.564,-9.826 93.753,-45.593 99.489,-101.074 1.638,-16.016 3.275,-32.037 4.913,-48.062 5.445,-52.995 10.882,-105.995 16.311,-158.998 l 17.761,-173.186 8.143,-79.37 c 0.406,-3.935 2.068,-7.636 4.74,-10.554 2.673,-2.917 6.213,-4.897 10.098,-5.647 15.316,-2.984 29.957,-8.082 40.852,-19.738 17.343,-18.559 20.794,-42.756 14.665,-67.149 z M 51.7034,261.147 c 0.2334,-0.111 -0.1965,1.892 -0.3807,2.825 -0.0369,-1.412 0.0368,-2.665 0.3807,-2.825 z m 1.4863,11.497 c 0.1228,-0.086 0.4912,0.405 0.872,0.994 -0.5773,-0.54 -0.9457,-0.945 -0.8843,-0.994 z m 1.4616,1.928 c 0.5281,0.897 0.8106,1.462 0,0 z m 2.9355,2.383 h 0.0737 c 0,0.086 0.1351,0.172 0.1842,0.258 -0.0814,-0.095 -0.1719,-0.181 -0.2701,-0.258 z m 514.0522,-3.562 c -5.502,5.232 -13.793,7.664 -21.986,8.88 -91.874,13.634 -185.086,20.537 -277.968,17.491 -66.473,-2.273 -132.247,-9.655 -198.0571,-18.952 -6.4484,-0.909 -13.4372,-2.089 -17.8712,-6.842 -8.3522,-8.966 -4.2498,-27.022 -2.0758,-37.855 1.9898,-9.924 5.7974,-23.153 17.601,-24.565 18.424,-2.162 39.8201,5.613 58.0481,8.377 21.945,3.349 43.971,6.03 66.08,8.045 94.355,8.597 190.295,7.259 284.232,-5.319 17.122,-2.301 34.183,-4.974 51.182,-8.02 15.145,-2.715 31.935,-7.812 41.086,7.873 6.276,10.686 7.111,24.983 6.141,37.057 -0.299,5.26 -2.597,10.208 -6.424,13.83 z"
       fill="#0d0c22"
       id="path897" />
    <path
       fill-rule="evenodd"
       clip-rule="evenodd"
       d="m 1128.89,528.658 c -5.36,10.24 -12.74,19.156 -22.12,26.723 -9.39,7.572 -20.34,13.737 -32.86,18.484 -12.51,4.758 -25.11,7.95 -37.77,9.578 -12.67,1.633 -24.97,1.492 -36.884,-0.447 -11.921,-1.927 -22.062,-5.86 -30.398,-11.804 l 9.391,-97.544 c 8.638,-2.967 19.509,-6.013 32.631,-9.132 13.11,-3.113 26.59,-5.345 40.45,-6.679 13.86,-1.339 26.97,-1.181 39.35,0.446 12.35,1.633 22.12,5.566 29.27,11.805 3.87,3.56 7.16,7.419 9.84,11.578 2.68,4.159 4.32,8.465 4.92,12.918 1.48,12.471 -0.45,23.829 -5.82,34.074 z M 992.546,320.873 c 6.262,-3.859 13.784,-7.278 22.574,-10.25 8.79,-2.961 17.81,-5.047 27.05,-6.233 9.23,-1.181 18.25,-1.339 27.05,-0.447 8.78,0.893 16.54,3.34 23.24,7.346 6.71,4.012 11.7,9.805 14.97,17.371 3.28,7.578 4.18,17.156 2.69,28.734 -1.19,9.205 -4.85,17.003 -10.95,23.383 -6.11,6.391 -13.57,11.731 -22.35,16.037 -8.8,4.312 -18.11,7.725 -27.94,10.239 -9.84,2.532 -19.31,4.391 -28.39,5.572 -9.09,1.192 -16.99,1.938 -23.69,2.226 -6.709,0.3 -11.11,0.447 -13.191,0.447 z m 184.624,144.756 c -4.77,-10.386 -11.17,-19.517 -19.22,-27.395 -8.04,-7.865 -17.59,-13.578 -28.61,-17.144 4.77,-3.86 9.46,-9.945 14.08,-18.263 4.62,-8.307 8.57,-17.371 11.85,-27.169 3.27,-9.805 5.51,-19.671 6.7,-29.622 1.19,-9.945 0.74,-18.484 -1.33,-25.615 -5.08,-17.811 -13.05,-31.769 -23.93,-41.867 -10.88,-10.092 -23.54,-17.071 -37.99,-20.936 -14.46,-3.848 -30.4,-4.673 -47.83,-2.447 -17.44,2.227 -35.25,6.606 -53.421,13.139 0,-1.481 0.148,-3.041 0.448,-4.674 0.289,-1.627 0.442,-3.339 0.442,-5.125 0,-4.453 -2.234,-8.307 -6.703,-11.578 -4.469,-3.267 -9.613,-5.193 -15.42,-5.792 -5.813,-0.588 -11.479,0.666 -16.991,3.786 -5.518,3.119 -9.318,8.843 -11.399,17.144 -2.388,26.728 -4.77,54.496 -7.152,83.293 -2.387,28.807 -4.917,57.909 -7.599,87.31 -2.683,29.395 -5.365,58.57 -8.048,87.519 -2.682,28.955 -5.365,56.791 -8.047,83.513 0.896,8.019 3.131,14.257 6.709,18.71 3.573,4.459 7.747,7.132 12.516,8.019 4.764,0.893 9.761,0.067 14.973,-2.453 5.211,-2.514 9.76,-6.905 13.639,-13.138 11.915,6.532 25.328,10.765 40.233,12.697 14.9,1.927 30.02,1.927 45.37,0 15.34,-1.932 30.47,-5.566 45.37,-10.917 14.9,-5.34 28.46,-12.025 40.68,-20.038 12.22,-8.018 22.5,-17.155 30.85,-27.395 8.34,-10.25 13.85,-21.309 16.54,-33.181 2.68,-12.177 3.42,-24.349 2.23,-36.527 -1.19,-12.171 -4.17,-23.45 -8.94,-33.854 z"
       fill="#0d0c23"
       id="path899" />
    <path
       fill-rule="evenodd"
       clip-rule="evenodd"
       d="m 1613.27,700.802 c -1.64,9.799 -3.96,20.117 -6.93,30.961 -2.99,10.832 -6.49,20.71 -10.51,29.621 -4.02,8.906 -8.49,16.099 -13.4,21.598 -4.93,5.492 -10.22,7.798 -15.88,6.91 -4.47,-0.604 -7.3,-3.424 -8.49,-8.464 -1.19,-5.058 -1.19,-11.291 0,-18.71 1.19,-7.425 3.5,-15.817 6.93,-25.169 3.42,-9.352 7.6,-18.636 12.51,-27.836 4.93,-9.21 10.51,-18.037 16.77,-26.502 6.26,-8.459 12.81,-15.517 19.67,-21.156 1.49,1.78 2.16,6.232 2.01,13.364 -0.16,7.125 -1.05,15.59 -2.68,25.383 z m 151.54,-193.308 c -4.02,-4.453 -8.94,-6.973 -14.75,-7.572 -5.81,-0.593 -11.7,2.673 -17.66,9.799 -3.88,7.125 -8.79,13.957 -14.75,20.489 -5.97,6.538 -12.15,12.472 -18.56,17.817 -6.4,5.34 -12.51,9.951 -18.32,13.805 -5.81,3.865 -10.36,6.685 -13.64,8.465 -1.19,-9.499 -1.86,-19.744 -2.01,-30.735 -0.16,-10.985 0.07,-22.117 0.67,-33.401 0.89,-16.037 2.75,-32.215 5.59,-48.552 2.83,-16.331 6.93,-32.368 12.29,-48.111 0,-8.306 -1.94,-15.065 -5.81,-20.263 -3.88,-5.194 -8.57,-8.465 -14.08,-9.799 -5.52,-1.334 -11.17,-0.593 -16.99,2.226 -5.81,2.826 -10.8,7.951 -14.97,15.365 -3.58,9.804 -7.68,20.789 -12.29,32.961 -4.63,12.177 -9.84,24.575 -15.65,37.194 -5.81,12.629 -12.3,24.874 -19.45,36.747 -7.15,11.883 -14.97,22.428 -23.47,31.627 -8.49,9.205 -17.73,16.41 -27.71,21.603 -9.99,5.199 -20.78,7.499 -32.41,6.905 -5.37,-1.486 -9.24,-5.492 -11.63,-12.03 -2.38,-6.527 -3.8,-14.698 -4.24,-24.496 -0.45,-9.799 0,-20.564 1.34,-32.295 1.34,-11.725 3.13,-23.383 5.36,-34.961 2.24,-11.584 4.7,-22.569 7.38,-32.961 2.68,-10.392 5.21,-19.156 7.6,-26.282 3.58,-8.606 3.58,-15.817 0,-21.603 -3.58,-5.792 -8.49,-9.646 -14.75,-11.584 -6.26,-1.927 -12.82,-1.848 -19.67,0.226 -6.86,2.079 -11.78,6.679 -14.75,13.805 -5.07,12.183 -9.69,25.835 -13.86,40.979 -4.18,15.145 -7.53,30.814 -10.06,46.992 -2.54,16.19 -3.96,32.227 -4.25,48.111 -0.02,1.034 0.03,2.017 0.03,3.046 -6.5,17.263 -12.7,30.311 -18.58,39.041 -7.6,11.291 -16.17,16.19 -25.7,14.698 -4.18,-1.78 -6.93,-5.933 -8.27,-12.471 -1.35,-6.527 -1.8,-14.545 -1.35,-24.056 0.46,-9.493 1.57,-20.258 3.35,-32.288 1.8,-12.025 4.03,-24.497 6.71,-37.414 2.69,-12.924 5.52,-25.903 8.49,-38.974 2.98,-13.064 5.66,-25.389 8.06,-36.973 -0.3,-10.392 -3.36,-18.331 -9.17,-23.829 -5.81,-5.487 -13.94,-7.64 -24.36,-6.459 -7.15,2.972 -12.45,6.837 -15.88,11.584 -3.43,4.747 -6.18,10.838 -8.26,18.258 -1.2,3.865 -2.99,11.584 -5.37,23.168 -2.39,11.573 -5.44,24.869 -9.16,39.861 -3.73,15.002 -8.12,30.661 -13.19,46.992 -5.07,16.33 -10.73,31.113 -16.98,44.319 -6.27,13.211 -13.12,23.829 -20.57,31.848 -7.45,8.012 -15.5,11.284 -24.14,9.798 -4.77,-0.893 -7.82,-5.792 -9.16,-14.698 -1.34,-8.911 -1.57,-19.89 -0.67,-32.961 0.89,-13.064 2.68,-27.395 5.36,-42.98 2.68,-15.59 5.43,-30.361 8.27,-44.324 2.83,-13.952 5.44,-26.282 7.83,-36.968 2.38,-10.691 4.02,-17.817 4.91,-21.377 0,-8.612 -1.94,-15.511 -5.81,-20.716 -3.88,-5.187 -8.57,-8.459 -14.08,-9.798 -5.52,-1.334 -11.18,-0.593 -16.99,2.226 -5.81,2.826 -10.8,7.951 -14.98,15.365 -1.49,8.018 -3.43,17.303 -5.81,27.841 -2.39,10.539 -4.69,21.377 -6.92,32.515 -2.24,11.138 -4.33,22.049 -6.26,32.741 -1.94,10.691 -3.36,20.043 -4.25,28.061 -0.6,6.233 -1.27,13.884 -2.01,22.937 -0.75,9.064 -1.12,18.636 -1.12,28.729 0,10.103 0.74,20.122 2.24,30.067 1.48,9.951 4.17,19.083 8.04,27.39 3.87,8.318 9.31,15.144 16.32,20.49 7,5.345 15.87,8.312 26.6,8.911 11.02,0.588 20.63,-0.221 28.83,-2.453 8.2,-2.226 15.64,-5.718 22.35,-10.47 6.71,-4.742 12.81,-10.387 18.33,-16.925 5.51,-6.526 10.95,-13.652 16.32,-21.377 5.06,11.291 11.62,20.044 19.67,26.282 8.04,6.233 16.54,9.951 25.48,11.132 8.93,1.181 18.03,-0.067 27.27,-3.786 9.23,-3.707 17.57,-10.019 25.03,-18.93 4.91,-5.464 9.54,-11.674 13.88,-18.54 1.84,3.215 3.8,6.318 6.01,9.182 7.31,9.511 17.22,16.037 29.74,19.603 13.4,3.566 26.51,4.165 39.33,1.786 12.81,-2.374 25.03,-6.685 36.65,-12.918 11.63,-6.238 22.43,-13.731 32.42,-22.496 9.98,-8.759 18.69,-17.885 26.15,-27.395 -0.31,6.832 -0.45,13.296 -0.45,19.377 0,6.091 -0.15,12.691 -0.45,19.823 -14.9,10.397 -28.98,22.868 -42.24,37.414 -13.27,14.545 -24.89,30.062 -34.87,46.545 -9.98,16.478 -17.81,33.182 -23.46,50.106 -5.67,16.935 -8.43,32.74 -8.28,47.444 0.15,14.697 3.65,27.536 10.5,38.521 6.86,10.991 18.03,18.857 33.53,23.609 16.1,5.052 30.25,5.193 42.47,0.447 12.22,-4.753 22.87,-12.624 31.96,-23.609 9.09,-10.986 16.54,-24.271 22.36,-39.861 5.81,-15.591 10.43,-31.848 13.85,-48.772 3.43,-16.924 5.59,-33.566 6.48,-49.885 0.9,-16.337 0.9,-30.893 0,-43.658 25.63,-10.686 46.64,-24.197 63.03,-40.533 16.39,-16.32 29.95,-33.549 40.68,-51.666 3.28,-4.452 4.4,-9.798 3.36,-16.031 -1.05,-6.238 -3.58,-11.584 -7.6,-16.037 z"
       fill="#0d0c23"
       id="path901" />
    <path
       fill-rule="evenodd"
       clip-rule="evenodd"
       d="m 2328.72,478.992 c 0.89,-6.826 2.23,-14.031 4.02,-21.603 1.78,-7.572 4.02,-14.923 6.71,-22.049 2.67,-7.126 5.8,-13.285 9.38,-18.484 3.58,-5.193 7.38,-8.905 11.4,-11.137 4.03,-2.221 8.12,-2.001 12.3,0.666 4.47,2.679 7.22,8.318 8.27,16.924 1.03,8.624 0,17.823 -3.13,27.621 -3.14,9.805 -8.72,19.004 -16.77,27.616 -8.04,8.617 -18.92,14.251 -32.63,16.924 -0.6,-4.148 -0.45,-9.646 0.45,-16.478 z m 154.89,18.258 c -4.92,-1.475 -9.61,-1.627 -14.08,-0.441 -4.47,1.187 -7.31,4.306 -8.49,9.358 -2.4,9.499 -6.19,19.224 -11.41,29.169 -5.21,9.951 -11.62,19.377 -19.21,28.288 -7.6,8.906 -16.18,16.777 -25.71,23.603 -9.54,6.832 -19.52,11.732 -29.95,14.698 -10.44,3.272 -19.08,3.639 -25.93,1.113 -6.85,-2.514 -12.29,-6.826 -16.31,-12.912 -4.02,-6.086 -6.93,-13.437 -8.72,-22.049 -1.79,-8.612 -2.84,-17.517 -3.13,-26.728 16.98,1.192 32.11,-1.848 45.38,-9.132 13.25,-7.267 24.5,-16.924 33.74,-28.949 9.24,-12.025 16.24,-25.536 21.01,-40.533 4.76,-14.992 7.45,-29.915 8.05,-44.766 0.29,-13.957 -1.79,-25.756 -6.26,-35.407 -4.47,-9.646 -10.51,-17.156 -18.11,-22.496 -7.59,-5.346 -16.31,-8.465 -26.15,-9.352 -9.82,-0.893 -19.82,0.446 -29.95,4.006 -12.22,4.159 -22.57,10.912 -31.06,20.27 -8.5,9.352 -15.58,20.195 -21.24,32.514 -5.66,12.325 -10.13,25.61 -13.41,39.861 -3.28,14.257 -5.66,28.288 -7.15,42.098 -1.34,12.392 -2.06,24.242 -2.31,35.679 -0.64,1.453 -1.26,2.848 -1.94,4.402 -4.62,10.55 -9.99,20.869 -16.09,30.961 -6.11,10.098 -12.89,18.563 -20.34,25.389 -7.45,6.832 -15.2,9.205 -23.25,7.126 -4.76,-1.181 -7.37,-6.685 -7.82,-16.478 -0.44,-9.804 0.07,-21.976 1.56,-36.527 1.5,-14.545 3.21,-30.294 5.15,-47.218 1.93,-16.924 2.9,-33.102 2.9,-48.546 0,-13.364 -2.53,-26.202 -7.6,-38.532 -5.07,-12.314 -12,-22.564 -20.78,-30.729 -8.8,-8.172 -19,-13.591 -30.62,-16.258 -11.63,-2.678 -24.14,-0.893 -37.55,5.34 -13.42,6.239 -24.07,14.997 -31.96,26.282 -7.91,11.29 -15.14,23.163 -21.69,35.634 -2.39,-9.505 -5.88,-18.331 -10.5,-26.502 -4.63,-8.166 -10.28,-15.291 -16.99,-21.383 -6.71,-6.08 -14.24,-10.832 -22.57,-14.251 -8.35,-3.408 -17.15,-5.12 -26.38,-5.12 -8.94,0 -17.21,1.712 -24.81,5.12 -7.6,3.419 -14.53,7.792 -20.79,13.138 -6.26,5.351 -11.92,11.358 -16.99,18.043 -5.06,6.679 -9.54,13.291 -13.4,19.817 -0.61,-7.719 -1.28,-14.471 -2.02,-20.269 -0.74,-5.787 -2.09,-10.686 -4.02,-14.692 -1.94,-4.012 -4.69,-7.052 -8.27,-9.132 -3.58,-2.074 -8.64,-3.119 -15.19,-3.119 -3.29,0 -6.57,0.667 -9.84,2 -3.29,1.339 -6.2,3.199 -8.72,5.572 -2.54,2.385 -4.47,5.272 -5.81,8.685 -1.35,3.413 -1.71,7.352 -1.12,11.805 0.29,3.271 1.12,7.199 2.46,11.804 1.34,4.606 2.6,10.624 3.8,18.037 1.19,7.426 2.16,16.41 2.9,26.949 0.75,10.544 0.97,23.462 0.67,38.753 -0.3,15.297 -1.41,33.182 -3.35,53.671 -1.94,20.49 -5,44.246 -9.16,71.263 -0.6,6.238 1.78,11.29 7.15,15.149 5.36,3.854 11.47,6.08 18.33,6.679 6.85,0.594 13.34,-0.599 19.44,-3.56 6.11,-2.977 9.62,-8.171 10.51,-15.59 0.89,-13.957 2.61,-28.802 5.14,-44.545 2.53,-15.732 5.66,-31.323 9.39,-46.766 3.72,-15.438 7.96,-30.136 12.74,-44.099 4.76,-13.957 10.06,-26.276 15.87,-36.967 5.81,-10.692 11.85,-19.224 18.1,-25.61 6.26,-6.385 12.81,-9.578 19.67,-9.578 8.35,0 14.82,3.781 19.45,11.353 4.61,7.577 7.89,17.308 9.83,29.175 1.94,11.883 2.83,24.88 2.69,38.979 -0.16,14.104 -0.75,27.689 -1.79,40.753 -1.05,13.071 -2.24,24.722 -3.58,34.967 -1.34,10.245 -2.31,17.303 -2.9,21.157 0,6.832 2.6,12.245 7.81,16.257 5.22,4.007 11.03,6.386 17.44,7.126 6.41,0.746 12.44,-0.447 18.11,-3.566 5.66,-3.119 8.93,-8.38 9.83,-15.811 2.98,-21.377 7.08,-42.827 12.29,-64.357 5.21,-21.529 11.18,-40.826 17.89,-57.903 6.7,-17.077 14.15,-31.034 22.35,-41.872 8.19,-10.833 16.91,-16.258 26.15,-16.258 4.76,0 8.42,3.272 10.95,9.799 2.53,6.532 3.8,15.438 3.8,26.722 0,8.318 -0.67,16.857 -2.01,25.615 -1.34,8.759 -2.9,17.817 -4.7,27.169 -1.78,9.358 -3.35,18.93 -4.69,28.729 -1.34,9.804 -2.01,20.043 -2.01,30.734 0,7.426 0.74,16.037 2.23,25.836 1.49,9.793 4.32,19.083 8.49,27.836 4.18,8.764 9.91,16.184 17.22,22.269 7.3,6.086 16.61,9.132 27.93,9.132 16.99,0 32.04,-3.639 45.16,-10.912 13.11,-7.272 24.36,-16.771 33.75,-28.502 0.48,-0.616 0.93,-1.272 1.4,-1.882 0.72,1.735 1.36,3.571 2.17,5.222 6.41,13.064 15.13,23.156 26.16,30.288 11.01,7.125 23.98,11.058 38.89,11.804 14.9,0.735 31.13,-2.011 48.73,-8.244 13.1,-4.753 24.5,-10.692 34.19,-17.817 9.68,-7.126 18.4,-15.811 26.15,-26.056 7.75,-10.245 14.82,-22.049 21.24,-35.408 6.41,-13.37 12.88,-28.655 19.44,-45.884 1.19,-4.741 0.07,-8.974 -3.35,-12.692 -3.43,-3.707 -7.6,-6.306 -12.52,-7.798 z"
       fill="#0d0c23"
       id="path903" />
    <path
       fill-rule="evenodd"
       clip-rule="evenodd"
       d="m 2726.57,447.574 c -1.5,8.764 -3.51,18.421 -6.04,28.954 -2.54,10.545 -5.74,21.456 -9.61,32.741 -3.88,11.285 -8.64,21.456 -14.3,30.509 -5.67,9.063 -12.15,16.257 -19.45,21.603 -7.31,5.345 -15.72,7.572 -25.26,6.679 -4.77,-0.588 -8.42,-3.854 -10.95,-9.799 -2.54,-5.933 -3.88,-13.511 -4.03,-22.716 -0.15,-9.199 0.67,-19.297 2.46,-30.288 1.79,-10.98 4.55,-21.75 8.28,-32.294 3.72,-10.533 8.27,-20.264 13.62,-29.175 5.37,-8.906 11.55,-15.811 18.56,-20.71 7,-4.9 14.68,-7.194 23.02,-6.906 8.34,0.3 17.28,4.453 26.83,12.472 -0.61,3.865 -1.64,10.177 -3.13,18.93 z m 158.91,34.074 c -4.62,-2.373 -9.39,-2.888 -14.3,-1.554 -4.92,1.334 -8.43,5.866 -10.51,13.584 -1.19,8.318 -3.87,18.111 -8.04,29.396 -4.18,11.285 -9.32,21.981 -15.42,32.068 -6.12,10.098 -13.12,18.489 -21.02,25.169 -7.9,6.685 -16.31,9.73 -25.25,9.126 -7.46,-0.588 -12.68,-4.374 -15.65,-11.353 -2.99,-6.978 -4.55,-15.731 -4.69,-26.282 -0.16,-10.533 0.89,-22.411 3.12,-35.628 2.24,-13.211 4.92,-26.349 8.05,-39.425 3.13,-13.059 6.33,-25.61 9.62,-37.635 3.27,-12.024 5.95,-22.196 8.04,-30.508 2.39,-7.425 1.64,-13.732 -2.24,-18.936 -3.87,-5.187 -8.71,-8.906 -14.52,-11.132 -5.82,-2.226 -11.7,-2.82 -17.67,-1.78 -5.96,1.04 -9.82,4.232 -11.62,9.572 -17.58,-15.144 -34.49,-23.309 -50.73,-24.496 -16.25,-1.186 -31.23,2.379 -44.93,10.692 -13.71,8.312 -25.85,20.337 -36.43,36.08 -10.58,15.743 -19.15,32.887 -25.71,51.445 -6.55,18.557 -10.65,37.493 -12.29,56.79 -1.64,19.303 -0.38,36.9 3.8,52.784 4.18,15.884 11.54,28.881 22.13,38.968 10.57,10.098 24.96,15.15 43.14,15.15 8.04,0 15.79,-1.633 23.24,-4.9 7.45,-3.271 14.31,-7.131 20.57,-11.584 6.25,-4.452 11.77,-9.131 16.54,-14.031 4.76,-4.899 8.49,-8.979 11.17,-12.25 2.08,10.691 5.52,19.755 10.28,27.174 4.77,7.42 10.21,13.517 16.32,18.258 6.1,4.747 12.52,8.239 19.22,10.471 6.71,2.226 13.19,3.339 19.45,3.339 14.01,0 27.11,-4.752 39.34,-14.257 12.21,-9.493 23.17,-21.156 32.86,-34.961 9.68,-13.811 17.65,-28.356 23.91,-43.652 6.26,-15.291 10.43,-28.876 12.51,-40.759 2.09,-4.453 1.72,-9.126 -1.11,-14.026 -2.84,-4.899 -6.56,-8.532 -11.18,-10.917 z"
       fill="#0d0c23"
       id="path905" />
    <path
       fill-rule="evenodd"
       clip-rule="evenodd"
       d="m 3690.14,727.546 c -2.53,10.093 -6.48,18.637 -11.84,25.61 -5.36,6.979 -12.07,10.618 -20.12,10.917 -5.06,0.294 -8.94,-2.379 -11.62,-8.018 -2.68,-5.645 -4.54,-12.918 -5.59,-21.824 -1.05,-8.911 -1.49,-18.862 -1.34,-29.847 0.15,-10.985 0.6,-21.823 1.34,-32.515 0.74,-10.685 1.64,-20.642 2.69,-29.842 1.03,-9.21 1.85,-16.325 2.45,-21.376 10.13,1.186 18.56,5.56 25.26,13.138 6.71,7.572 11.84,16.551 15.42,26.948 3.58,10.392 5.66,21.603 6.26,33.628 0.59,12.025 -0.38,23.084 -2.91,33.181 z m -161.82,0 c -2.53,10.093 -6.48,18.637 -11.85,25.61 -5.36,6.979 -12.06,10.618 -20.11,10.917 -5.07,0.294 -8.94,-2.379 -11.62,-8.018 -2.69,-5.645 -4.55,-12.918 -5.59,-21.824 -1.05,-8.911 -1.5,-18.862 -1.34,-29.847 0.14,-10.985 0.59,-21.823 1.34,-32.515 0.74,-10.685 1.63,-20.642 2.68,-29.842 1.04,-9.21 1.86,-16.325 2.46,-21.376 10.13,1.186 18.56,5.56 25.25,13.138 6.71,7.572 11.85,16.551 15.43,26.948 3.58,10.392 5.66,21.603 6.26,33.628 0.59,12.025 -0.38,23.084 -2.91,33.181 z M 3362.26,474.555 c -0.31,7.12 -0.98,13.432 -2.02,18.925 -1.05,5.503 -2.46,8.984 -4.25,10.47 -3.28,-1.785 -7.31,-6.379 -12.07,-13.81 -4.77,-7.42 -8.49,-15.817 -11.18,-25.169 -2.67,-9.352 -3.5,-18.551 -2.45,-27.615 1.03,-9.053 5.74,-16.099 14.08,-21.157 3.27,-1.78 6.1,-1.113 8.49,2.006 2.39,3.12 4.32,7.646 5.82,13.585 1.48,5.944 2.52,12.771 3.12,20.49 0.6,7.724 0.74,15.144 0.46,22.275 z m -39.57,88.859 c -4.62,4.893 -9.77,9.126 -15.42,12.691 -5.67,3.566 -11.48,6.239 -17.44,8.019 -5.96,1.785 -11.33,2.226 -16.09,1.333 -13.41,-2.667 -23.7,-8.464 -30.84,-17.37 -7.16,-8.906 -11.71,-19.371 -13.64,-31.396 -1.94,-12.03 -1.72,-24.875 0.67,-38.533 2.38,-13.658 6.4,-26.349 12.07,-38.08 5.66,-11.731 12.52,-21.829 20.56,-30.289 8.05,-8.464 16.83,-13.731 26.38,-15.816 -3.58,15.144 -4.77,30.814 -3.58,46.992 1.19,16.184 5.07,31.401 11.63,45.653 4.16,8.623 9.16,16.483 14.97,23.609 5.81,7.131 12.89,13.217 21.24,18.263 -2.39,5.052 -5.9,10.024 -10.51,14.924 z m 494.64,-84.406 c 0.89,-6.826 2.23,-14.037 4.02,-21.609 1.78,-7.566 4.02,-14.918 6.7,-22.044 2.68,-7.131 5.81,-13.29 9.39,-18.483 3.58,-5.193 7.38,-8.912 11.4,-11.138 4.02,-2.226 8.12,-2.006 12.29,0.667 4.47,2.678 7.23,8.318 8.27,16.924 1.04,8.617 0,17.817 -3.13,27.621 -3.13,9.798 -8.71,19.004 -16.76,27.61 -8.04,8.623 -18.92,14.257 -32.63,16.93 -0.6,-4.154 -0.45,-9.646 0.45,-16.478 z m 180.15,0 c 0.89,-6.826 2.23,-14.037 4.02,-21.609 1.79,-7.566 4.03,-14.918 6.71,-22.044 2.68,-7.131 5.81,-13.29 9.38,-18.483 3.58,-5.193 7.38,-8.912 11.4,-11.138 4.03,-2.226 8.13,-2.006 12.3,0.667 4.47,2.678 7.22,8.318 8.27,16.924 1.04,8.617 0,17.817 -3.13,27.621 -3.13,9.798 -8.72,19.004 -16.77,27.61 -8.04,8.623 -18.92,14.257 -32.63,16.93 -0.59,-4.154 -0.45,-9.646 0.45,-16.478 z m 167.41,26.056 c -3.43,-3.707 -7.6,-6.307 -12.51,-7.798 -4.92,-1.481 -9.61,-1.628 -14.09,-0.441 -4.47,1.186 -7.3,4.306 -8.49,9.352 -2.39,9.504 -6.19,19.229 -11.4,29.169 -5.22,9.957 -11.62,19.382 -19.22,28.288 -7.6,8.906 -16.17,16.783 -25.7,23.609 -9.55,6.832 -19.53,11.731 -29.95,14.692 -10.44,3.278 -19.08,3.645 -25.94,1.119 -6.85,-2.52 -12.29,-6.826 -16.31,-12.912 -4.02,-6.092 -6.93,-13.438 -8.72,-22.055 -1.78,-8.606 -2.83,-17.512 -3.13,-26.723 16.99,1.193 32.12,-1.848 45.38,-9.131 13.25,-7.273 24.51,-16.93 33.75,-28.955 9.23,-12.019 16.24,-25.53 21.01,-40.527 4.76,-14.998 7.44,-29.916 8.05,-44.766 0.28,-13.957 -1.8,-25.762 -6.27,-35.414 -4.46,-9.645 -10.5,-17.15 -18.1,-22.49 -7.6,-5.351 -16.31,-8.465 -26.15,-9.357 -9.83,-0.893 -19.82,0.452 -29.95,4.006 -12.22,4.165 -22.57,10.917 -31.06,20.269 -8.5,9.358 -15.58,20.202 -21.24,32.515 -5.67,12.33 -10.14,25.609 -13.42,39.866 -3.28,14.252 -5.66,28.288 -7.14,42.093 -1.45,13.398 -2.24,26.22 -2.42,38.493 -1.13,2.447 -2.33,4.905 -3.63,7.38 -5.21,9.957 -11.62,19.382 -19.22,28.288 -7.59,8.906 -16.17,16.783 -25.7,23.609 -9.54,6.832 -19.52,11.731 -29.95,14.692 -10.44,3.278 -19.08,3.645 -25.93,1.119 -6.85,-2.52 -12.29,-6.826 -16.31,-12.912 -4.02,-6.092 -6.93,-13.438 -8.72,-22.055 -1.79,-8.606 -2.84,-17.512 -3.13,-26.723 16.98,1.193 32.11,-1.848 45.37,-9.131 13.26,-7.273 24.51,-16.93 33.75,-28.955 9.24,-12.019 16.24,-25.53 21.01,-40.527 4.76,-14.998 7.45,-29.916 8.05,-44.766 0.29,-13.957 -1.79,-25.762 -6.26,-35.414 -4.47,-9.645 -10.51,-17.15 -18.11,-22.49 -7.6,-5.351 -16.31,-8.465 -26.15,-9.357 -9.83,-0.893 -19.82,0.452 -29.95,4.006 -12.22,4.165 -22.57,10.917 -31.06,20.269 -8.5,9.358 -15.58,20.202 -21.24,32.515 -5.66,12.33 -10.13,25.609 -13.41,39.866 -3.28,14.252 -5.66,28.288 -7.15,42.093 -0.84,7.787 -1.41,15.336 -1.83,22.75 -2.88,2.441 -5.68,4.899 -8.68,7.312 -10.27,8.318 -21.08,15.811 -32.4,22.496 -11.34,6.685 -23.11,12.178 -35.32,16.483 -12.23,4.306 -24.74,6.906 -37.55,7.793 l 27.72,-295.757 c 1.78,-6.238 0.89,-11.725 -2.68,-16.477 -3.58,-4.753 -8.21,-8.019 -13.87,-9.799 -5.66,-1.786 -11.7,-1.633 -18.1,0.441 -6.41,2.085 -11.7,6.837 -15.87,14.251 -2.09,11.29 -4.25,26.728 -6.48,46.325 -2.24,19.597 -4.47,40.98 -6.71,64.142 -2.23,23.163 -4.47,47.066 -6.7,71.709 -2.24,24.654 -4.18,47.664 -5.81,69.041 -0.08,0.95 -0.14,1.808 -0.21,2.747 -2.61,2.203 -5.14,4.424 -7.84,6.605 -10.28,8.318 -21.09,15.811 -32.41,22.496 -11.33,6.685 -23.1,12.178 -35.31,16.483 -12.23,4.306 -24.75,6.906 -37.56,7.793 l 27.72,-295.757 c 1.79,-6.238 0.9,-11.725 -2.68,-16.477 -3.58,-4.753 -8.2,-8.019 -13.86,-9.799 -5.66,-1.786 -11.7,-1.633 -18.11,0.441 -6.41,2.085 -11.69,6.837 -15.86,14.251 -2.09,11.29 -4.25,26.728 -6.48,46.325 -2.24,19.597 -4.48,40.98 -6.71,64.142 -2.24,23.163 -4.47,47.066 -6.71,71.709 -2.23,24.654 -4.17,47.664 -5.81,69.041 -0.03,0.43 -0.06,0.82 -0.09,1.249 -4.69,2.164 -9.79,4.063 -15.33,5.657 -5.67,1.638 -12.07,2.605 -19.22,2.898 1.19,-5.351 2.15,-11.29 2.9,-17.822 0.74,-6.527 1.35,-13.359 1.79,-20.49 0.45,-7.12 0.59,-14.251 0.45,-21.377 -0.16,-7.131 -0.53,-13.658 -1.12,-19.603 -1.49,-12.759 -4.24,-24.863 -8.26,-36.3 -4.03,-11.426 -9.47,-20.999 -16.32,-28.729 -6.86,-7.719 -15.43,-12.917 -25.71,-15.585 -10.28,-2.672 -22.28,-1.785 -35.98,2.668 -20.28,-2.668 -38.53,-0.809 -54.77,5.571 -16.24,6.391 -30.32,15.664 -42.24,27.836 -11.92,12.183 -21.68,26.502 -29.28,42.986 -7.6,16.477 -12.67,33.407 -15.2,50.772 -1.08,7.363 -1.6,14.692 -1.76,22.004 -4.61,9.414 -9.66,17.642 -15.23,24.547 -7.89,9.799 -16.09,17.817 -24.58,24.05 -8.5,6.238 -16.92,10.991 -25.26,14.257 -8.35,3.272 -15.8,5.498 -22.35,6.679 -7.75,1.486 -15.2,1.639 -22.35,0.446 -7.15,-1.181 -13.72,-4.599 -19.67,-10.244 -4.77,-4.154 -8.42,-10.839 -10.95,-20.044 -2.54,-9.205 -4.02,-19.665 -4.47,-31.401 -0.45,-11.731 0,-23.982 1.34,-36.747 1.34,-12.765 3.64,-24.869 6.93,-36.301 3.27,-11.432 7.44,-21.676 12.51,-30.74 5.06,-9.047 11.02,-15.512 17.88,-19.371 3.87,0.599 6.27,2.893 7.16,6.899 0.89,4.012 1.11,8.765 0.67,14.257 -0.45,5.499 -1.12,11.138 -2.01,16.924 -0.9,5.793 -1.35,10.624 -1.35,14.478 1.5,8.018 4.4,14.257 8.72,18.71 4.32,4.452 9.17,7.057 14.53,7.792 5.36,0.746 10.65,-0.514 15.87,-3.786 5.21,-3.261 9.46,-8.459 12.74,-15.591 0.3,0.3 0.74,0.447 1.34,0.447 l 6.26,-56.565 c 1.79,-7.724 0.59,-14.55 -3.58,-20.489 -4.17,-5.939 -9.68,-9.358 -16.54,-10.245 -8.64,-12.471 -20.34,-19.077 -35.09,-19.823 -14.75,-0.74 -29.88,4.085 -45.37,14.477 -9.54,6.838 -17.96,16.257 -25.26,28.282 -7.31,12.031 -13.26,25.389 -17.88,40.087 -4.63,14.698 -7.9,30.22 -9.83,46.551 -1.94,16.331 -2.32,32.221 -1.13,47.653 1.19,15.45 3.96,30 8.28,43.653 4.31,13.663 10.35,25.095 18.11,34.294 6.55,8.019 13.99,13.89 22.34,17.603 8.34,3.712 17.06,6.006 26.15,6.899 9.09,0.887 18.11,0.514 27.05,-1.113 8.94,-1.627 17.44,-3.927 25.48,-6.905 10.43,-3.854 21.16,-8.759 32.19,-14.698 11.02,-5.933 21.6,-13.065 31.74,-21.383 5.32,-4.373 10.46,-9.143 15.42,-14.257 2.26,5.583 4.78,10.986 7.82,16.043 8.05,13.359 18.92,24.202 32.63,32.515 13.7,8.312 30.55,12.313 50.52,12.025 21.46,-0.3 41.27,-5.713 59.45,-16.258 18.18,-10.533 33.08,-26.061 44.71,-46.545 17.41,0 34.53,-2.86 51.37,-8.539 -0.14,1.797 -0.28,3.69 -0.41,5.425 -1.19,15.738 -1.8,26.423 -1.8,32.068 -0.29,9.799 -0.95,21.897 -2,36.295 -1.05,14.404 -1.72,29.548 -2.01,45.433 -0.3,15.884 0.29,31.921 1.78,48.111 1.5,16.178 4.62,30.881 9.39,44.098 4.76,13.206 11.54,24.417 20.34,33.628 8.79,9.2 20.34,14.698 34.65,16.478 15.19,2.074 28.3,-0.599 39.33,-8.019 11.02,-7.425 19.97,-17.591 26.83,-30.508 6.85,-12.924 11.69,-27.842 14.52,-44.766 2.83,-16.924 3.65,-33.927 2.46,-51.004 -1.19,-17.076 -4.32,-33.181 -9.39,-48.32 -5.07,-15.149 -12.07,-27.621 -21.01,-37.425 5.37,-1.475 11.77,-4.294 19.23,-8.459 7.44,-4.153 15.12,-8.832 23.02,-14.031 1.94,-1.277 3.85,-2.622 5.79,-3.933 -0.73,10.522 -1.1,18.026 -1.1,22.422 -0.29,9.799 -0.96,21.897 -2.01,36.295 -1.04,14.404 -1.71,29.548 -2.01,45.433 -0.29,15.884 0.3,31.921 1.79,48.111 1.49,16.178 4.62,30.881 9.38,44.098 4.77,13.206 11.55,24.417 20.34,33.628 8.79,9.2 20.34,14.698 34.65,16.478 15.19,2.074 28.31,-0.599 39.34,-8.019 11.02,-7.425 19.96,-17.591 26.82,-30.508 6.85,-12.924 11.69,-27.842 14.53,-44.766 2.83,-16.924 3.64,-33.927 2.46,-51.004 -1.2,-17.076 -4.33,-33.181 -9.39,-48.32 -5.07,-15.149 -12.07,-27.621 -21.02,-37.425 5.37,-1.475 11.78,-4.294 19.23,-8.459 7.45,-4.153 15.12,-8.832 23.02,-14.031 4.11,-2.701 8.19,-5.487 12.25,-8.352 1.54,14.523 4.84,27.26 10.1,37.973 6.41,13.071 15.12,23.163 26.15,30.294 11.02,7.12 23.99,11.059 38.9,11.799 14.9,0.735 31.13,-2.006 48.73,-8.244 13.1,-4.747 24.5,-10.686 34.19,-17.812 9.68,-7.131 18.4,-15.816 26.15,-26.055 0.45,-0.594 0.87,-1.238 1.31,-1.837 1.38,4.159 2.91,8.154 4.73,11.855 6.41,13.071 15.12,23.163 26.15,30.294 11.02,7.12 23.99,11.059 38.89,11.799 14.9,0.735 31.14,-2.006 48.73,-8.244 13.11,-4.747 24.51,-10.686 34.2,-17.812 9.68,-7.131 18.39,-15.816 26.15,-26.055 7.74,-10.251 14.81,-22.055 21.23,-35.414 6.41,-13.364 12.88,-28.649 19.45,-45.879 1.19,-4.746 0.06,-8.979 -3.36,-12.691 z"
       fill="#0d0c23"
       id="path907" />
  </g>
</svg>
