<?xml version="1.0" encoding="UTF-8" standalone="no"?>
<svg
   xmlns:dc="http://purl.org/dc/elements/1.1/"
   xmlns:cc="http://creativecommons.org/ns#"
   xmlns:rdf="http://www.w3.org/1999/02/22-rdf-syntax-ns#"
   xmlns:svg="http://www.w3.org/2000/svg"
   xmlns="http://www.w3.org/2000/svg"
   xmlns:sodipodi="http://sodipodi.sourceforge.net/DTD/sodipodi-0.dtd"
   xmlns:inkscape="http://www.inkscape.org/namespaces/inkscape"
   id="svg7384"
   sodipodi:docname="kitchen-timer-180.svg"
   version="1.1"
   inkscape:version="1.0.1 (3bc2e813f5, 2020-09-07)"
   height="16"
   width="16">
  <metadata
     id="metadata90">
    <rdf:RDF>
      <cc:Work
         rdf:about="">
        <dc:format>image/svg+xml</dc:format>
        <dc:type
           rdf:resource="http://purl.org/dc/dcmitype/StillImage" />
        <dc:title>Gnome Symbolic Icon Theme</dc:title>
      </cc:Work>
    </rdf:RDF>
  </metadata>
  <sodipodi:namedview
     inkscape:cy="8.2976727"
     pagecolor="#555753"
     borderopacity="1"
     showborder="false"
     inkscape:bbox-paths="false"
     guidetolerance="10"
     inkscape:window-width="1920"
     showguides="true"
     inkscape:object-nodes="true"
     inkscape:snap-bbox="true"
     inkscape:pageshadow="2"
     inkscape:guide-bbox="true"
     inkscape:snap-nodes="true"
     bordercolor="#666666"
     objecttolerance="10"
     id="namedview88"
     showgrid="true"
     inkscape:window-maximized="1"
     inkscape:window-x="0"
     inkscape:snap-global="true"
     inkscape:window-y="32"
     gridtolerance="10"
     inkscape:window-height="1019"
     inkscape:snap-to-guides="true"
     inkscape:current-layer="layer11"
     inkscape:zoom="62.430266"
     inkscape:cx="8.4171325"
     inkscape:snap-grids="true"
     inkscape:pageopacity="1"
     inkscape:document-rotation="0">
    <inkscape:grid
       spacingx="1"
       spacingy="1"
       id="grid4866"
       empspacing="2"
       enabled="true"
       type="xygrid"
       snapvisiblegridlinesonly="false"
       visible="true"
       originx="0"
       originy="0" />
    <sodipodi:guide
       position="12.741732,10.653914"
       orientation="0,-1"
       id="guide1453" />
    <sodipodi:guide
       position="7.6516571,5.9866943"
       orientation="0,-1"
       id="guide1455" />
    <sodipodi:guide
       position="8,11.613577"
       orientation="1,0"
       id="guide1457" />
    <sodipodi:guide
       position="8.7815383,11.811265"
       orientation="1,0"
       id="guide1459" />
    <sodipodi:guide
       position="7,8.3915108"
       orientation="1,0"
       id="guide1461" />
    <sodipodi:guide
       position="9.8031518,13"
       orientation="1,0"
       id="guide1463" />
  </sodipodi:namedview>
  <title
     id="title9167">Gnome Symbolic Icon Theme</title>
  <defs
     id="defs7386" />
  <g
     inkscape:label="status"
     transform="translate(-62,-381)"
     inkscape:groupmode="layer"
     id="layer9"
     style="display:inline" />
  <g
     inkscape:label="devices"
     transform="translate(-62,-381)"
     inkscape:groupmode="layer"
     id="layer10" />
  <g
     inkscape:label="apps"
     transform="translate(-62,-381)"
     inkscape:groupmode="layer"
     id="layer11">
    <g
       transform="matrix(0.82289476,0,0,0.82289476,-54.093228,78.243597)"
       id="g4474"
       style="fill:none" />
    <g
       transform="matrix(1.0990866,0,0,1.0990866,33.120532,189.29954)"
       id="layer10-7" />
    <g
       transform="matrix(1.0990866,0,0,1.0990866,33.120532,189.29954)"
       id="layer11-2" />
    <g
       transform="matrix(1.0990866,0,0,1.0990866,33.120532,189.29954)"
       id="layer12-2" />
    <g
       transform="matrix(1.0990866,0,0,1.0990866,33.120532,189.29954)"
       id="layer13-6" />
    <g
       transform="matrix(1.0990866,0,0,1.0990866,33.120532,189.29954)"
       id="layer14-1" />
    <g
       transform="matrix(1.0990866,0,0,1.0990866,33.120532,189.29954)"
       id="layer15-0" />
    <path
       inkscape:connector-curvature="0"
       id="rect3335"
       d="m 69.682822,382.89991 c -1.794739,0.0355 -3.476853,0.34716 -4.553882,1.17262 -1.278769,1.03215 -2.130225,9.78838 -2.140325,9.89331 v 0.0114 c -2.6e-5,2.8e-4 0,0.0228 0,0.0228 H 63 l 0.523697,1.25231 c 2.434643,0.36474 4.809396,0.46433 6.853592,0.44401 0.02569,-2.6e-4 0.05411,2.9e-4 0.07969,0 2.044196,0.0203 4.418948,-0.0793 6.853592,-0.44401 L 77.83427,394 h 0.01138 c 0,0 2.7e-5,-0.0225 0,-0.0228 v -0.0114 c -0.0101,-0.10493 -0.861556,-8.86116 -2.140325,-9.89331 -1.077028,-0.82546 -2.759143,-1.13715 -4.553881,-1.17262 -0.228075,-0.005 -0.462612,-0.004 -0.694467,0 -0.02652,-5.5e-4 -0.05309,4.4e-4 -0.07969,0 -0.231855,-0.004 -0.466392,-0.005 -0.694467,0 z m 0.728621,1.4117 c 2.418307,0 4.383111,1.96481 4.383111,4.38311 0,2.41831 -1.964804,4.37173 -4.383111,4.37173 -2.418307,0 -4.371727,-1.95342 -4.371727,-4.37173 0,-2.4183 1.95342,-4.38311 4.371727,-4.38311 z"
       style="fill:#bebebe;fill-opacity:1;stroke:#bebebe;stroke-width:0.364311;stroke-linejoin:round;stroke-miterlimit:4;stroke-opacity:1" />
    <path
       style="fill:#bebebe;fill-opacity:1;fill-rule:evenodd;stroke:#bebebe;stroke-width:0.177;stroke-linecap:butt;stroke-linejoin:round;stroke-miterlimit:4;stroke-dasharray:none;stroke-opacity:1"
       d="m 70.670015,391.73826 1.000002,-4.65391 -2.803144,-0.0133 1.021624,4.66721 z"
       id="path1465"
       sodipodi:nodetypes="ccccc" />
  </g>
  <g
     inkscape:label="actions"
     transform="translate(-62,-381)"
     inkscape:groupmode="layer"
     id="layer12" />
  <g
     inkscape:label="places"
     transform="translate(-62,-381)"
     inkscape:groupmode="layer"
     id="layer13" />
  <g
     inkscape:label="mimetypes"
     transform="translate(-62,-381)"
     inkscape:groupmode="layer"
     id="layer14" />
  <g
     inkscape:label="emblems"
     transform="translate(-62,-381)"
     id="layer15"
     style="display:inline" />
</svg>
